<?xml version="1.0" encoding="UTF-8"?><svg id="b" xmlns="http://www.w3.org/2000/svg" xmlns:xlink="http://www.w3.org/1999/xlink" viewBox="0 0 681.79 816.11"><defs><style>.d{fill:#fff;}.e{stroke:#1e0f00;stroke-width:3.06px;}.e,.f,.g{fill:none;}.e,.g{stroke-miterlimit:10;}.h{fill:#7ed957;}.i{fill:#0f1621;}.j{clip-path:url(#c);}.g{stroke:#0f1621;stroke-width:10.72px;}.k{fill:#a8db91;}.l{fill:#fefefe;}</style><clipPath id="c"><circle class="g" cx="340.49" cy="335.01" r="329.65" transform="translate(-137.16 338.89) rotate(-45)"/></clipPath></defs><circle class="d" cx="340.49" cy="335.01" r="329.65"/><g><g class="j"><rect class="i" y="249.62" width="79.46" height="280.7"/><rect class="i" x="69.34" y="277.19" width="112.01" height="387.46"/><rect class="i" x="159.04" y="187.49" width="112.01" height="503.23"/><rect class="i" x="229.15" y="126.19" width="112.01" height="602.61"/><rect class="i" x="316.06" y="290.23" width="112.01" height="491.71"/><rect class="i" x="391.1" y="193.85" width="112.01" height="503.23"/><rect class="i" x="472.27" y="235.02" width="112.01" height="503.23"/><rect class="i" x="536.6" y="284.97" width="112.01" height="503.23"/><rect class="i" x="569.78" y="312.88" width="112.01" height="503.23"/></g><circle class="g" cx="340.49" cy="335.01" r="329.65" transform="translate(-137.16 338.89) rotate(-45)"/></g><g><g><polygon class="k" points="666.6 548.96 433.78 588.79 217.82 558.15 14.39 588.79 78.44 375.73 228.54 345.1 412.34 375.73 582.36 349.69 666.6 548.96"/><polygon class="k" points="412.34 375.73 433.78 588.79 217.82 558.15 228.77 357.56 412.34 375.73"/><path class="h" d="M228.77,357.56l181.56,30.26,1.93,.32,1.94-.3,160.59-24.59,74.51,176.24-215.68,36.89-214.07-30.36-1.77-.25-1.77,.27-184.3,27.75,56.37-187.52,140.7-28.71m-.23-12.46l-150.1,30.63L14.39,588.79l203.43-30.63,215.97,30.63,232.81-39.82-84.24-199.27-170.02,26.04-183.8-30.63h0Z"/><polygon class="h" points="228.54 345.1 228.77 357.56 413.62 388.43 412.34 375.73 228.54 345.1"/><polygon class="h" points="432.55 576.5 433.78 588.79 217.82 558.15 217.82 545.75 432.55 576.5"/></g><g><path class="k" d="M413.14,146.88c0,36.26-65.65,119.52-65.65,119.52,0,0-65.65-83.26-65.65-119.52s29.39-65.65,65.65-65.65,65.65,29.39,65.65,65.65Z"/><path class="k" d="M413.14,146.88c0,36.26-65.65,119.52-65.65,119.52,0,0-65.65-83.26-65.65-119.52s29.39-65.65,65.65-65.65,65.65,29.39,65.65,65.65Z"/><path class="h" d="M347.49,81.23v185.18s65.65-83.26,65.65-119.52-29.39-65.65-65.65-65.65Z"/><circle class="l" cx="347.49" cy="143.38" r="30.44"/><circle class="l" cx="347.49" cy="143.38" r="30.44"/><path class="k" d="M347.49,112.94v60.88c16.81,0,30.44-13.63,30.44-30.44s-13.63-30.44-30.44-30.44Z"/></g><polygon class="k" points="61.52 558.95 92.16 480.73 144.23 473.17 135.04 545.75 61.52 558.95"/><polygon class="k" points="151.89 503.7 151.89 539.47 218.84 539.47 220.79 503.7 151.89 503.7"/><polygon class="k" points="220.79 503.7 234.09 505.74 247.36 545.6 218.84 539.47 220.79 503.7"/><polygon class="k" points="62.05 473.08 128.15 461.58 141.93 423.29 72.96 436.63 62.05 473.08"/><path class="k" d="M141.93,454.5s58.97-6.11,75.82-33.7l-20.29-28.72-42.12,14.17-13.4,48.25Z"/><polygon class="k" points="141.93 417.16 148.06 391.51 84.88 398.78 82.97 428.08 141.93 417.16"/><polygon class="k" points="88.33 385.76 171.04 369.3 163.38 381.93 86.41 392.08 88.33 385.76"/><polygon class="k" points="57.95 486.85 77.35 483.28 44.67 571.1 32.42 573.65 57.95 486.85"/><polygon class="k" points="148.8 464.95 151.89 497.06 221.32 494 224.36 438.38 148.8 464.95"/><polygon class="k" points="224.36 438.38 257.58 451.63 250.43 503.7 221.32 494 224.36 438.38"/><polygon class="k" points="209.07 369.3 225.45 418.41 257.58 430.18 265.75 372.49 228.54 366.76 209.07 369.3"/><polygon class="k" points="228.54 366.76 225.45 418.41 209.07 369.3 228.54 366.76"/><polygon class="k" points="274.84 365.25 274.84 402.61 330.18 398.47 325.8 373.76 274.84 365.25"/><path class="k" d="M274.84,409.79l-13.43,31.88s54.08,13.8,68.78,6.52v-18l10.31-2.11v-13.21l-65.65-5.07Z"/><path class="k" d="M265.75,454.5l4.08,49.2h76.58v-20.42s-9.96-14.04-9.96-22.46l-70.71-6.32Z"/><polygon class="k" points="265.75 552.61 261.41 524.65 295.87 516.06 336.46 521.59 361.75 566.36 265.75 552.61"/><polygon class="k" points="346.41 383.93 361.75 409.79 415.73 409.41 413.55 387.78 367.27 380.69 346.41 383.93"/><polygon class="k" points="413.55 387.78 415.73 409.41 453.63 402.61 446.23 382.83 413.55 387.78"/><polygon class="k" points="355.71 423.29 353.92 428.08 346.41 448.18 420.27 454.5 416.64 418.41 355.71 423.29"/><polygon class="k" points="416.64 418.41 446.48 409.79 433.78 454.5 420.27 454.5 416.64 418.41"/><polygon class="k" points="346.41 466.94 361.75 509.83 406.15 509.83 390.32 467.72 355.71 462.86 346.41 466.94"/><polygon class="k" points="421.93 471.04 413.55 473.08 425.84 509.83 421.93 471.04"/><polygon class="k" points="421.93 471.04 453.63 462.86 465.88 497.06 425.84 509.83 421.93 471.04"/><polygon class="k" points="446.48 519.99 427.33 524.65 432.55 576.5 488.35 548.25 465.88 524.65 446.48 519.99"/><path class="k" d="M427.33,524.65l-21.18-3.06h-35.22l-15.22,19.62s26.48,31.41,76.84,35.29l-5.22-51.85Z"/><polygon class="k" points="574.12 365.25 496.52 375.04 465.88 392.59 453.63 428.08 590.46 402.61 574.12 365.25"/><polygon class="k" points="595.56 418.41 552.68 418.41 511.83 438.38 559.83 471.04 618.03 466.94 595.56 418.41"/><path class="k" d="M457.84,438.38l40.72-8.2v24.32l13.27,16.54s-49.79,27.61-53.99-32.66Z"/><polygon class="k" points="529.57 499.22 519.19 529.08 511.83 558.95 570.04 545.6 577.7 503.7 529.57 499.22"/><path class="k" d="M625.18,483.28l23.49,52.08-60.23,13.69-6.14-32.98s16.34-30.74,42.89-32.78Z"/><path class="h" d="M623.22,478.81c-39.1,16.98-66.6,16.02-84.84,11.63-8.1-1.95-12.87-4.22-21.88-4.98-27.83-2.37-51.79,13.36-67.98,27.44-7.06,3.92-14.13,7.84-21.19,11.76l-1.49-14.82c3.85-1.23,9.55-3.29,16.05-6.64,12.43-6.41,15.77-11.33,24-16.85,18.68-12.53,39.65-12.74,48.5-12.83,12.6-.13,19.93,2.3,28.08,3.84,16.81,3.17,41.55,3.38,75.56-10.41,1.73,3.96,3.46,7.91,5.19,11.87Z"/><path class="h" d="M425.84,509.83l1.49,14.82s-21.16,1.04-56.4-3.06c-35.24-4.1-60.26,1.22-75.06-5.52-14.81-6.74-74.55-4.19-74.55-4.19v-17.87s62.25,.51,79.63,9.7c17.38,9.19,99.14-2.55,124.89,6.13Z"/><path class="h" d="M221.32,494s-35.22,1.02-61.26,5.62c-26.04,4.6,1.79-26.38-8.17-35.75s-89.84,9.22-89.84,9.22l-4.1,13.77s67.9-17.87,75.05-11.23c7.15,6.64-14.81,30.85-1.02,40.44,13.79,9.59,89.34-4.19,89.34-4.19v-17.87Z"/><path class="h" d="M371.43,510.85s-21.95-16.34-25.02-47.99c-3.06-31.65,10.11-24.27,9.3-44.44s-15.22-42.2-15.22-42.2l-5.86-.98s18.41,30.38,14.84,43.17c-3.57,12.79-14.9,40.39-8.98,52.63,5.92,12.24,19.19,39.81,23.79,42.36,4.6,2.55,7.15-2.55,7.15-2.55Z"/><path class="h" d="M72.96,436.63s62.59-21.31,86.58-18.22c24,3.09,64.81,26.31,64.81,26.31l.82-21.44s-43.68-16.59-64.61-20.68c-20.93-4.08-83.22,17.87-83.22,17.87l-4.39,16.15Z"/><path class="h" d="M225.18,423.29s94.17,40.59,121.23,39.57c27.06-1.02,67.14-75.08,67.14-75.08l2.18,21.63s-18.26,46.12-44.3,55.65c14.33,9.12,21.9,18.89,26.18,26.28,4.46,7.7,5.61,13.24,11.76,21.92,6.37,8.98,13.55,14.9,18.68,18.53,.53,6.81,1.06,13.61,1.59,20.42-5.11-4.03-12.84-10.69-20.81-20.17-15.82-18.83-17.22-30.52-30.3-41.03-11.8-9.49-24.51-11.1-33.65-12.58-24.37-3.93-61.23-12.98-120.53-33.7,.27-7.15,.55-14.29,.82-21.44Z"/><polygon class="h" points="413.55 387.78 425.84 385.92 415.73 409.41 413.55 387.78"/><path class="h" d="M428.05,531.79c10.07,3.24,33.42,9.05,51.62-2.94,10.7-7.05,15.34-17.8,24.61-39.3,10.87-25.2,7.54-28.97,17.51-49.03,5.22-10.5,12.48-25.1,27.3-38.78,0,0,3.76-3.47,30.81-23.26h0l6.17,14.11c-9.69,6.75-23.29,18.09-34.8,35.68-6.02,9.2-10.09,18.01-12.89,25.5l69.36-9.04,2.58,5.58-69.9,10.92c-4.21,6.74-10.27,17.36-15.77,31.27-4.32,10.92-5,15.53-8.61,23.46-3.83,8.43-10.74,20.1-24.12,32.29,5.93,5.18,11.87,10.36,17.8,15.54l-28.53,3.48-10.72-8.31s-34.64,1.36-40.84-6.75l-1.59-20.42Z"/><path class="h" d="M201.41,418.41s24.07-25.24,27.35-60.86l-19.69,3.7s-3.5,35.99-22.49,50.55l14.84,6.61Z"/><path class="h" d="M209.07,385.92s-17.17-8.07-17.36-20.67h-2.68s3.2,18.95,18.64,23.18c15.44,4.23,1.4-2.51,1.4-2.51Z"/><g><rect class="i" x="251.73" y="306.68" width="191.47" height="163.99"/><rect class="d" x="268.14" y="378.48" width="158.65" height="81.42"/><rect class="i" x="251.73" y="306.68" width="191.47" height="72.18"/><rect class="d" x="268.14" y="324.01" width="158.65" height="55.95"/><rect class="d" x="251.73" y="288.77" width="188.65" height="17.92"/><rect class="e" x="251.73" y="288.77" width="191.47" height="17.92"/><polygon class="d" points="440.38 306.68 251.73 306.68 230.66 366.75 461.46 366.75 440.38 306.68"/><polygon class="i" points="267.54 306.68 251.73 306.68 230.66 366.75 246.46 366.75 267.54 306.68"/><polygon class="i" points="302.68 306.68 286.87 306.68 272.81 366.75 288.62 366.75 302.68 306.68"/><polygon class="i" points="337.81 306.68 322 306.68 314.97 366.75 330.78 366.75 337.81 306.68"/><polygon class="i" points="372.94 306.68 357.13 306.68 364.16 366.75 379.97 366.75 372.94 306.68"/><polygon class="i" points="408.07 306.68 392.26 306.68 406.32 366.75 422.12 366.75 408.07 306.68"/><polygon class="i" points="443.2 306.68 427.4 306.68 448.47 366.75 464.28 366.75 443.2 306.68"/><path class="i" d="M238.58,376.87h0c-4.38,0-7.92-3.55-7.92-7.92v-2.2h15.84v2.2c0,4.38-3.55,7.92-7.92,7.92Z"/><path class="f" d="M262.7,376.87h-6.08c-5.59,0-10.12-4.53-10.12-10.12h26.31c0,5.59-4.53,10.12-10.12,10.12Z"/><path class="i" d="M280.74,376.87h0c-4.38,0-7.92-3.55-7.92-7.92v-2.2h15.84v2.2c0,4.38-3.55,7.92-7.92,7.92Z"/><path class="f" d="M304.85,376.87h-6.08c-5.59,0-10.12-4.53-10.12-10.12h26.31c0,5.59-4.53,10.12-10.12,10.12Z"/><path class="i" d="M322.89,376.87h0c-4.38,0-7.92-3.55-7.92-7.92v-2.2h15.84v2.2c0,4.38-3.55,7.92-7.92,7.92Z"/><path class="f" d="M354.04,376.87h-13.11c-5.59,0-10.12-4.53-10.12-10.12h33.34c0,5.59-4.53,10.12-10.12,10.12Z"/><path class="i" d="M372.08,376.87h0c-4.38,0-7.92-3.55-7.92-7.92v-2.2h15.84v2.2c0,4.38-3.55,7.92-7.92,7.92Z"/><path class="f" d="M396.2,376.87h-6.08c-5.59,0-10.12-4.53-10.12-10.12h26.31c0,5.59-4.53,10.12-10.12,10.12Z"/><path class="i" d="M414.24,376.87h0c-4.38,0-7.92-3.55-7.92-7.92v-2.2h15.84v2.2c0,4.38-3.55,7.92-7.92,7.92Z"/><path class="f" d="M438.36,376.87h-6.08c-5.59,0-10.12-4.53-10.12-10.12h26.31c0,5.59-4.53,10.12-10.12,10.12Z"/><path class="i" d="M448.47,366.75h15.84v2.2c0,4.37-3.55,7.92-7.92,7.92h0c-4.37,0-7.92-3.55-7.92-7.92v-2.2h0Z"/></g><polygon class="i" points="268.14 459.9 291.67 459.9 450.1 366.96 426.61 366.96 268.14 459.9"/></g></svg>