<?xml version="1.0" encoding="UTF-8"?><svg id="a" xmlns="http://www.w3.org/2000/svg" viewBox="0 0 996.94 657.48"><defs><style>.b{fill:#f0c731;}.c{fill:#fff;}.d{fill:#bab8d5;}.e{isolation:isolate;opacity:.2;}.e,.f{fill:#007cc7;}.g{fill:#b2bc51;}.h{fill:#7ed957;}.i{fill:#1b1b1b;}.j{fill:#b9a553;}.k{fill:#e1e1e1;}.l{fill:#514ba6;}.m{fill:#ecb72d;}.n{fill:#5d83f0;}.o{fill:#406be8;}.p{fill:#dc873a;}.q{fill:#dd612a;}.r{fill:#0f1621;}.s{fill:#637b63;}.t{fill:#141414;}.u{fill:#bcbcbc;}.v{fill:#cbdeed;}.w{fill:#5b9b5c;}.x{fill:#e7c341;}.y{fill:#a8db91;}.z{fill:#d07774;}</style></defs><g><rect class="e" y="244.34" width="497.07" height="413.13"/><g><polygon class="f" points="665.25 476.8 638.68 406.33 572.84 377.84 716.76 316.35 665.25 476.8"/><polygon class="f" points="448.34 571.12 406.41 526.92 500.54 424.18 540.49 466.99 619.95 381.82 661.45 426.39 540.49 556.05 500.97 513.6 448.34 571.12"/></g><rect class="c" x="21.24" y="221.58" width="497.07" height="413.13"/><rect class="k" x="21.24" y="221.58" width="497.07" height="113.67"/><g><g><rect class="l" x="124.5" y="375.08" width="290.67" height="9.96"/><rect class="u" x="124.5" y="409.23" width="290.67" height="14.65"/><rect class="d" x="124.5" y="431.7" width="194.58" height="8.39"/><g><rect class="s" x="145.07" y="392.87" width="270.1" height="8.39"/><rect class="j" x="124.5" y="392.87" width="13.27" height="8.39"/></g></g><g><rect class="l" x="124.5" y="475.38" width="290.67" height="9.96"/><rect class="u" x="124.5" y="509.52" width="290.67" height="14.65"/><rect class="d" x="124.5" y="532" width="194.58" height="8.39"/><g><rect class="s" x="145.07" y="493.16" width="270.1" height="8.39"/><rect class="j" x="124.5" y="493.16" width="13.27" height="8.39"/></g></g><g><rect class="l" x="124.5" y="574.11" width="290.67" height="9.96"/><rect class="u" x="124.5" y="608.25" width="290.67" height="14.65"/><g><rect class="s" x="145.07" y="592.04" width="270.1" height="8.39"/><rect class="j" x="124.5" y="592.04" width="13.27" height="8.39"/></g></g></g><g><g><rect class="c" x="141.35" y="282.33" width="243.69" height="28.45"/><rect class="n" x="397.52" y="282.33" width="53.22" height="28.45"/></g><g><rect class="o" x="42.07" y="286.74" width="16.06" height="22.19"/><rect class="m" x="76.19" y="294.42" width="11.28" height="14.51"/><rect class="z" x="61.72" y="294.42" width="11.28" height="14.51"/><rect class="o" x="91.05" y="294.42" width="11.28" height="22.19"/><rect class="w" x="105.92" y="286.74" width="6.37" height="22.19"/><rect class="z" x="116" y="295.84" width="7.7" height="13.09"/></g></g><rect class="v" x="21.24" y="221.58" width="497.07" height="34"/><ellipse class="q" cx="48.05" cy="239.93" rx="5.44" ry="5.83"/><ellipse class="b" cx="67.43" cy="239.93" rx="5.44" ry="5.83"/><ellipse class="g" cx="86.67" cy="239.93" rx="5.44" ry="5.83"/></g><g><g><ellipse class="i" cx="890.57" cy="278.54" rx="4.91" ry="5.26"/><path class="t" d="M881.89,.49c.23-.24,0-.49,0-.49,0,0-.23,.24,0,.49Z"/><g><g><path class="p" d="M902.45,345.15c-3.77-3.06-9.02-5.75-13.71-6.86-1.37-.49-2.74-.61-4.11-.61-1.49,0-2.86,.12-4.11,.61-4.8,1.22-9.94,3.8-13.71,6.86-6.28,5.14-11.19,36.73-4.45,66.61,5.14,30,21.93,58.28,22.27,57.67,.34,.61,17.13-27.67,22.27-57.67,6.74-29.87,1.83-61.46-4.45-66.61Z"/><path class="x" d="M900.51,348.21c-3.31-2.82-8-5.02-12.22-6.12-1.14-.37-2.4-.49-3.66-.49s-2.51,.12-3.66,.49c-4.23,1.1-8.91,3.43-12.22,6.12-5.94,4.65-6.28,20.45-.46,34.53,5.14,14.08,16.33,26.32,16.33,25.96,.11,.37,11.31-11.88,16.33-25.96,5.83-14.08,5.48-29.87-.46-34.53Z"/></g><polygon class="r" points="907.93 355.06 861.22 355.06 854.48 334.37 914.67 334.37 907.93 355.06"/><polygon class="r" points="925.98 337.68 843.05 337.68 836.43 317.35 932.38 317.35 925.98 337.68"/></g><path class="f" d="M934.44,310.13c-.69,2.69-1.37,5.14-2.17,7.22h-95.84c-.57-1.96-1.26-4.04-1.83-6.24-8-30.12-14.39-93.05-14.74-125.86-.57-56.32,14.62-102.6,30.27-134.8,10.62-21.92,21.48-37.34,27.76-44.93,1.71-2.08,3.08-3.67,4-4.53,3.31,4.04,17.82,21.3,32.33,49.46,16.33,31.71,32.78,77.01,33.35,132.72,.34,33.18-5.25,96.48-13.14,126.97Z"/><g><path class="f" d="M991.55,306.46c-1.03,0-2.06-.37-2.86-.98-15.76-13.1-33.58-22.28-52.77-27.43-2.06-.49-3.43-2.45-3.54-4.65l-.69-53.5c0-1.47,.57-2.82,1.6-3.8,.8-.73,1.83-1.22,2.97-1.22,.23,0,.46,0,.8,.12,34.27,5.88,59.4,37.1,59.86,74.32,.11,4.29-.23,8.69-.91,13.1-.23,1.71-1.37,3.18-2.86,3.8-.46,.12-1.03,.24-1.6,.24Z"/><path class="f" d="M778.74,309.4c1.03,0,2.06-.37,2.86-1.1,15.42-13.47,33.01-23.26,52.2-28.77,2.06-.61,3.43-2.57,3.31-4.77l-.69-53.5c0-1.47-.69-2.82-1.71-3.67-.8-.73-1.83-1.1-2.97-1.1-.23,0-.57,0-.8,.12-34.04,6.73-58.49,38.69-58.14,75.91,.11,4.29,.46,8.69,1.26,13.1,.34,1.71,1.37,3.06,2.86,3.67,.69,0,1.26,.12,1.83,.12Z"/></g><path class="y" d="M868.75,317.35h-32.33c-.57-1.96-1.26-4.04-1.83-6.24-8-30.12-14.39-93.05-14.74-125.86-.57-56.32,14.62-102.6,30.27-134.8,10.62-21.92,21.48-37.34,27.76-44.93-12.57,33.42-23.76,79.09-27.42,139.45-4.68,78.11,6.17,134.92,18.28,172.39Z"/><g><path class="c" d="M905.76,188.55c-.8-2.2-1.71-4.04-2.97-5.51-1.26-1.47-2.63-2.45-4.23-3.06-1.6-.61-3.2-.98-4.8-.98-2.06,0-3.88,.37-5.37,1.22-1.49,.86-2.63,1.84-3.66,3.18-1.03,1.35-1.83,2.82-2.4,4.53-.69,1.71-1.14,3.43-1.71,5.26-.46,1.84-.91,3.55-1.37,5.26-.46,1.71-.91,3.18-1.49,4.53s-1.26,2.45-2.06,3.18c-.8,.86-1.83,1.22-3.08,1.22-2.17,0-3.88-.98-5.14-2.82-1.26-1.84-1.94-4.16-1.94-7.1,0-2.69,.46-5.14,1.26-7.59,.91-2.45,2.17-4.53,4.11-6.37l-4.11-3.55c-2.06,1.96-3.54,4.41-4.68,7.22-1.03,2.82-1.6,6.12-1.6,9.79,0,2.33,.34,4.53,.91,6.61,.57,2.08,1.49,3.8,2.51,5.26,1.14,1.47,2.4,2.57,3.88,3.43,1.49,.86,3.2,1.22,5.03,1.22,2.06,0,3.66-.37,5.03-1.22,1.37-.86,2.51-1.84,3.43-3.18s1.71-2.82,2.28-4.53,1.14-3.43,1.6-5.26,.91-3.55,1.37-5.26c.46-1.71,.91-3.18,1.6-4.53,.69-1.35,1.49-2.33,2.4-3.18,.91-.86,2.17-1.22,3.54-1.22,.91,0,1.71,.24,2.63,.61s1.71,.98,2.51,1.84,1.37,1.96,1.83,3.43,.69,3.31,.69,5.39c0,1.71-.23,3.31-.57,4.77s-.8,2.82-1.37,4.16c-.57,1.22-1.26,2.45-2.06,3.55-.8,1.1-1.6,1.96-2.4,2.69l4.23,3.55c2.06-1.96,3.77-4.53,5.14-7.59,1.26-3.06,1.94-6.61,1.94-10.9,.23-3.06-.11-5.75-.91-8.08Z"/><path class="c" d="M901.2,138.72v25.47h-15.42v-24.98h-5.03v24.98h-14.51v-25.47h-4.91v31.47h44.89v-31.47h-5.03Z"/><path class="c" d="M905.19,97.58c-1.14-2.94-2.74-5.39-4.91-7.47-2.06-2.08-4.57-3.67-7.31-4.9-2.86-1.1-5.94-1.71-9.25-1.71s-6.4,.61-9.25,1.71c-2.86,1.22-5.25,2.82-7.31,4.9-2.06,2.08-3.77,4.65-4.91,7.47-1.14,2.94-1.71,6.12-1.71,9.79s.57,6.73,1.71,9.67c1.14,2.94,2.74,5.39,4.91,7.47,2.06,2.08,4.57,3.67,7.31,4.9,2.86,1.22,5.94,1.71,9.25,1.71s6.4-.61,9.25-1.71,5.25-2.82,7.31-4.9,3.66-4.65,4.91-7.47c1.14-2.94,1.71-6.12,1.71-9.67s-.57-6.86-1.71-9.79Zm-4.57,17.02c-.91,2.2-2.17,4.04-3.77,5.63-1.6,1.59-3.54,2.69-5.83,3.55-2.17,.86-4.68,1.22-7.2,1.22s-5.03-.37-7.2-1.22c-2.28-.86-4.23-1.96-5.83-3.55-1.6-1.59-2.86-3.43-3.77-5.63-.91-2.2-1.37-4.65-1.37-7.35s.46-5.14,1.37-7.22c.91-2.2,2.17-4.04,3.77-5.51,1.6-1.59,3.54-2.69,5.83-3.55,2.28-.86,4.68-1.22,7.2-1.22s5.03,.37,7.2,1.22,4.11,2.08,5.83,3.55c1.6,1.59,2.86,3.43,3.77,5.51,.91,2.2,1.37,4.53,1.37,7.22s-.46,5.14-1.37,7.35Z"/></g></g><path class="h" d="M902,107.25c0-2.69-.46-5.14-1.37-7.22-.91-2.2-2.17-4.04-3.88-5.51-1.6-1.59-3.54-2.69-5.83-3.55-2.17-.86-4.57-1.22-7.2-1.22s-5.03,.37-7.31,1.22-4.11,2.08-5.83,3.55c-1.6,1.59-2.86,3.43-3.77,5.51-.91,2.2-1.37,4.53-1.37,7.22s.46,5.14,1.37,7.35c.91,2.2,2.17,4.04,3.77,5.63,1.6,1.59,3.54,2.69,5.83,3.55,2.28,.86,4.68,1.22,7.31,1.22s5.03-.37,7.2-1.22,4.11-1.96,5.83-3.55c1.6-1.59,2.97-3.43,3.88-5.63,.91-2.2,1.37-4.65,1.37-7.35Z"/></g></svg>