<svg xmlns="http://www.w3.org/2000/svg" xmlns:xlink="http://www.w3.org/1999/xlink" width="100%" viewBox="0 0 750 55.5" height="100%" preserveAspectRatio="xMidYMid meet" version="1.0"><defs><clipPath id="81e7fd5d3c"><path d="M 8 0.1875 L 742 0.1875 L 742 55.003906 L 8 55.003906 Z M 8 0.1875 " clip-rule="nonzero"/></clipPath></defs><g><path fill="#ffffff" d="M 741.910156 14.820312 C 702.714844 14.429688 702.128906 0.214844 661.832031 0.214844 C 620.976562 0.214844 620.976562 14.839844 580.113281 14.839844 C 539.253906 14.839844 539.253906 0.214844 498.398438 0.214844 C 457.539062 0.214844 457.539062 14.839844 416.683594 14.839844 C 375.824219 14.839844 375.824219 0.214844 334.96875 0.214844 C 294.109375 0.214844 294.109375 14.839844 253.25 14.839844 C 212.394531 14.839844 212.394531 0.214844 171.539062 0.214844 C 130.679688 0.214844 130.679688 14.839844 89.820312 14.839844 C 48.960938 14.839844 48.960938 0.214844 8.109375 0.214844 L 8.109375 55.214844 L 741.910156 55.214844 L 741.910156 14.820312 " fill-opacity="1"/></g></svg>