<?xml version="1.0" encoding="UTF-8"?><svg id="b" xmlns="http://www.w3.org/2000/svg" viewBox="0 0 94.13 80.4"><defs><style>.c{fill:#007cc7;}</style></defs><path class="c" d="M61.04,74.76c3.19,3.68,8.33,5.64,14.22,5.64,11.52,0,18.87-7.6,18.87-19.36s-7.6-19.86-18.38-19.86c-2.21,0-4.66,.49-7.11,1.23-1.47-18.38,7.6-33.58,19.86-38.24l-1.23-4.17c-21.08,8.09-34.32,28.68-34.32,52.95,0,7.84,2.94,16.42,8.09,21.82ZM0,52.95c0,13.48,7.6,27.45,22.31,27.45,11.28,0,18.63-7.6,18.63-19.36s-7.6-19.86-18.14-19.86c-2.21,0-4.66,.49-7.11,1.23-1.47-18.38,7.6-33.58,19.86-38.24l-1.47-4.17C13.24,8.09,0,28.68,0,52.95Z"/></svg>