<?xml version="1.0" encoding="utf-8"?>
<!-- Generator: Adobe Illustrator 26.2.1, SVG Export Plug-In . SVG Version: 6.00 Build 0)  -->
<svg version="1.1" id="Layer_1" xmlns="http://www.w3.org/2000/svg" xmlns:xlink="http://www.w3.org/1999/xlink" x="0px" y="0px"
	 viewBox="0 0 2000 444.4" style="enable-background:new 0 0 2000 444.4;" xml:space="preserve">
<style type="text/css">
	.st0{fill:#12232E;}
	.st1{fill:#007CC7;}
</style>
<path class="st0" d="M498.5,315.1c-39.3,0-68.2-26-68.2-60.4c0-34.7,28.9-58.1,68.2-58.1h74.9L560.8,213h-62.3
	c-23.2,0-49,13.1-49,42.7s26,43.4,59.5,43.4h64.4l-12.6,16.1H498.5z"/>
<path class="st0" d="M622.4,315.1l11.7-16.1h82.5l-54.5-82.1l-66.4,98.3H573l76.8-112.8c2.5-3.7,6.7-7.3,12.6-7.3
	c5.7,0,9.9,3.2,12.6,7.3l75.8,112.8H622.4z"/>
<path class="st0" d="M779.8,221.6v93.5h-17.3v-108c0-8.5,5-12,10.6-12c2.5,0,5.3,0.7,8.3,3.7l95.1,91v-93.1H894v107.5
	c0,8.5-5.1,12-10.8,12c-2.5,0-5.1-0.5-8.1-3.5L779.8,221.6z"/>
<path class="st0" d="M952.1,315.1l11.7-16.1h82.5l-54.5-82.1l-66.4,98.3h-22.7l76.8-112.8c2.5-3.7,6.7-7.3,12.6-7.3
	c5.7,0,9.9,3.2,12.6,7.3l75.8,112.8H952.1z"/>
<path class="st0" d="M406.2,314.4l-42.3-39.1h-68v39.1h-19.1v-54.5h84.8c22.1,0,42.1-6.4,42.1-23.4c0-18.8-17.5-24.3-42.1-24.3
	h-85.2L289,196h79.7c27.6,0,54.7,10.6,54.7,39.5c0,21.2-15.6,34.2-39.7,36.3l48.5,42.7H406.2z"/>
<g>
	<path class="st1" d="M169,181.5"/>
	<path class="st1" d="M169.6,182.3c0,0-4.8,6.2-4.8,6.2L71.3,314.4l-61.3,0l124.1-166.5c10.1-13.3,21.7-19.6,36.5-19.6
		c14.6,0,26.3,6.4,35.8,19.5l77.4,106.6h-15l0,60H112l29.9-39.2l48.4,0c12.3,0,26.3,0,35.9,0.6l11.8,0.7l-7.3-9.2
		c-4.9-6.2-12.2-16.3-18.6-25.2l-1.9-2.6l-37.2-52.2"/>
	<path class="st1" d="M303.8,284.4v29.3c0,0.4,0.3,0.7,0.7,0.7H333c0.6,0,0.9-0.6,0.6-1.1L312.3,284c-0.1-0.2-0.3-0.3-0.6-0.3h-7.3
		C304.1,283.8,303.8,284.1,303.8,284.4z"/>
</g>
<path class="st1" d="M1090.5,315.1V203.6h42.9v69.9h137V170.7h-179.9v-41.6h190.6c4.5,0,8.7,0.8,12.6,2.5c3.9,1.7,7.3,3.9,10.2,6.7
	c2.9,2.8,5.2,6.1,6.9,9.8c1.7,3.7,2.5,7.7,2.5,11.9v123.7c0,4.5-0.9,8.7-2.5,12.5c-1.7,3.8-3.9,7.2-6.7,9.9c-2.8,2.8-6.1,5-9.8,6.6
	c-3.7,1.6-7.7,2.4-11.8,2.4H1090.5z"/>
<path class="st0" d="M1336.6,315.1V196.7h19.1v118.4H1336.6z"/>
<path class="st0" d="M1442.2,315.1c-39.3,0-68.2-26-68.2-60.4c0-34.7,28.9-58.1,68.2-58.1h76.1L1506,213h-63.7
	c-28.2,0-49,16.5-49,42.7c0,26.2,20.7,43.4,49,43.4h52.4v-37.4h-69l11.7-14.5h76.5v68H1442.2z"/>
<path class="st0" d="M1535.5,315.1V196.7h19.1v118.4H1535.5z"/>
<path class="st0" d="M1628.8,315.1V213H1566l12.9-16.3h137l-12.6,16.3h-55.2v102.2H1628.8z"/>
<path class="st0" d="M1731.5,315.1l11.7-16.1h82.5l-54.5-82.1l-66.4,98.3h-22.7l76.8-112.8c2.5-3.7,6.7-7.3,12.6-7.3
	c5.7,0,9.9,3.2,12.6,7.3l75.8,112.8H1731.5z"/>
<path class="st0" d="M1872.1,315.1V196.7h19.1V299h98.8l-12.6,16.1H1872.1z"/>
</svg>
