<?xml version="1.0" encoding="UTF-8"?><svg id="Layer_1" xmlns="http://www.w3.org/2000/svg" viewBox="0 0 986.08 93.57"><defs><style>.cls-1{fill:#12232e;}.cls-2{fill:#fff;}</style></defs><path class="cls-2" d="M243.28,93.05c-19.57,0-33.95-12.96-33.95-30.07s14.37-28.92,33.95-28.92h37.3l-6.26,8.11h-31.04c-11.55,0-24.42,6.52-24.42,21.25s12.96,21.6,29.63,21.6h32.09l-6.26,8.02h-31.04Z"/><path class="cls-1" d="M305,93.05l5.82-8.02h41.09s-27.16-40.91-27.16-40.91l-33.06,48.93h-11.29l38.27-56.16c1.23-1.85,3.35-3.62,6.26-3.62s4.94,1.59,6.26,3.62l37.74,56.16h-63.92Z"/><path class="cls-2" d="M383.38,46.49v46.55h-8.64V39.26c0-4.23,2.47-6,5.29-6,1.23,0,2.65,.35,4.14,1.85l47.35,45.32V34.06h8.73v53.52c0,4.23-2.56,6-5.38,6-1.23,0-2.56-.26-4.06-1.76l-47.44-45.32Z"/><path class="cls-1" d="M469.17,93.05l5.82-8.02h41.09l-27.16-40.91-33.06,48.93h-11.29l38.27-56.16c1.23-1.85,3.35-3.62,6.26-3.62s4.94,1.59,6.26,3.62l37.74,56.16h-63.92Z"/><path class="cls-2" d="M197.33,92.72l-21.07-19.49h-33.86v19.49h-9.52v-27.16h42.23c11.02,0,20.98-3.17,20.98-11.64,0-9.35-8.73-12.08-20.98-12.08h-42.41l6.26-8.11h39.68c13.75,0,27.24,5.29,27.24,19.66,0,10.58-7.76,17.02-19.75,18.08l24.16,21.25h-12.96Z"/><g><path class="cls-1" d="M79.47,26.92s-2.37,3.08-2.39,3.1L30.51,92.68H0S61.79,9.74,61.79,9.74C66.8,3.1,72.58,0,79.96,0s13.1,3.18,17.85,9.71l38.53,53.07h-7.45v29.89H50.78l14.9-19.51h24.12c6.14,0,13.09,0,17.86,.28l5.85,.35-3.63-4.6c-2.44-3.09-6.07-8.12-9.27-12.56l-.95-1.32-18.51-25.98"/><path class="cls-1" d="M146.31,77.77v14.6c0,.19,.15,.34,.34,.34h14.22c.28,0,.44-.31,.27-.54l-10.6-14.6c-.06-.09-.17-.14-.27-.14h-3.62c-.19,0-.34,.15-.34,.34Z"/></g><path class="cls-2" d="M538.1,93.07V37.49h21.39v34.83h68.22V21.13h-89.6V.39h94.95c2.22,0,4.34,.42,6.28,1.26,1.93,.83,3.64,1.95,5.07,3.34,1.43,1.39,2.59,3.03,3.42,4.89,.84,1.87,1.27,3.86,1.27,5.92v61.63c0,2.23-.42,4.32-1.26,6.23-.83,1.9-1.96,3.56-3.35,4.95-1.4,1.4-3.04,2.5-4.9,3.29-1.86,.79-3.84,1.19-5.89,1.19h-95.59Z"/><path class="cls-2" d="M660.65,93.05V34.06h9.52v58.99h-9.52Z"/><path class="cls-2" d="M713.29,93.05c-19.57,0-33.95-12.96-33.95-30.07s14.37-28.92,33.95-28.92h37.91l-6.17,8.11h-31.74c-14.02,0-24.42,8.2-24.42,21.25s10.32,21.6,24.42,21.6h26.1v-18.6h-34.39l5.82-7.23h38.09v33.86h-35.62Z"/><path class="cls-2" d="M759.75,93.05V34.06h9.52v58.99h-9.52Z"/><path class="cls-2" d="M806.22,93.05V42.17h-31.3l6.44-8.11h68.24l-6.26,8.11h-27.51v50.87h-9.61Z"/><path class="cls-1" d="M857.36,93.05l5.82-8.02h41.09l-27.16-40.91-33.06,48.93h-11.29l38.27-56.16c1.23-1.85,3.35-3.62,6.26-3.62s4.94,1.59,6.26,3.62l37.74,56.16h-63.92Z"/><path class="cls-2" d="M927.36,93.05V34.06h9.52v50.96h49.2l-6.26,8.02h-52.46Z"/></svg>