<svg xmlns="http://www.w3.org/2000/svg" viewBox="0 0 1721.84 188.15"><path d="M138.49 62.03s-.04.06-.05.08c-.07.1-.16.23-.27.3 0 0 .01 0 .02.01-12.59 23.36-25.21 46.77-37.82 70.18L62.66 64.55s.05-.04.07-.06c-.02 0-.06 0-.06-.01-.01-.13 0-.24.02-.35a59.757 59.757 0 0 0-7.52 7.98c.48.35.68.43.76.57 12.38 22.6 24.77 45.19 37.08 67.82.3.54.23 1.65-.14 2.15-4.86 6.51-9.8 12.97-14.97 19.77 0 0-.02 0-.03-.01-.01.02-.03.05-.04.07a59.54 59.54 0 0 0 9.97 3.43c.12-.2.27-.38.42-.56h-.03c3.33-4.81 6.84-9.61 10.64-14.53a1.43 1.43 0 0 1 2.28.03c3.89 5.27 7.76 10.48 11.38 15.39l-.03.03h.01c.05.03.08.07.1.12.04.06.09.11.13.17.03.01.06.02.08.03a58.93 58.93 0 0 0 9.74-2.71c-5.38-7.17-10.58-14.05-15.67-21-.4-.54-.4-1.76-.07-2.37 12.45-22.88 24.96-45.73 37.46-68.58.39-.71.83-1.4 1.55-2.62 0 0 0 .01.01.02v-.02c0-.03.01-.06.03-.08.03-.05.06-.09.08-.14a60.502 60.502 0 0 0-7.47-7.02Z" fill="#007cc7"/><path d="M151.28 138.99c-7.22 11.59-17 19.96-29.21 24.52-.03-.05-.07-.09-.1-.13a57.18 57.18 0 0 1-20.05 3.61c-9.12 0-17.74-2.14-25.4-5.93-.94-.41-1.89-.85-2.83-1.32-7.57-4.29-13.84-9.76-18.62-16.44-.78-1.19-1.49-2.26-2.13-3.2-3.51-5.73-6.03-12.25-7.46-19.59-2.84-14.49-.25-27.87 7.16-40.06.13-.22.25-.43.38-.65.06-.1.12-.19.18-.29 1.01-1.63 2.1-3.2 3.27-4.72.08-.1.15-.2.22-.31h.01c10.49-13.45 26.83-22.12 45.21-22.12 21.15 0 39.62 11.47 49.55 28.52 2.48-1.46 5.02-2.94 7.74-4.53-.34-.71-.57-1.36-.93-1.92-14.1-22.63-41.1-34.69-67.74-30.28-26.17 4.33-47.75 24.58-53.76 50.45-5.09 21.94.93 43.9 15.04 59.7.16.18.33.36.49.54.05.06.12.14.2.21 2.42 2.55 10.91 10.92 23.82 16.52 0 0 22.09 12.42 51.02-.28 5.09-2.2 10.35-5.12 15.76-8.92 0 0 .02 0 .02-.01 6.01-4.71 11.17-10.46 15.41-17.3.23-.36.42-.75.77-1.37-2.77-1.63-5.29-3.11-8.03-4.72Z" fill="#7ed957"/><path d="M9.59 179.32c7.7-49.76 15.38-99.3 23.05-148.82l.74-.13c4.94 9.17 9.87 18.34 14.95 27.78 2.31-2.05 4.45-3.87 6.47-5.82.34-.33.39-1.35.14-1.83C46.09 33.89 37.17 17.31 27.65.74 18.45 60.18 9.24 119.63 0 179.32h9.59ZM147.37 51.46c1.83 1.21 3.43 2.78 5.45 4.47 4.65-8.63 9.22-17.09 13.78-25.56h.73c7.68 49.53 15.34 99.07 23.07 148.94h9.6c-9.23-59.64-18.44-119.13-27.76-179.32-.78 1.34-1.21 2.03-1.6 2.74-8.03 14.95-16.01 29.92-24.1 44.84-.99 1.79-.88 2.75.83 3.88Z" fill="#007cc7"/><g stroke-linecap="round" stroke-miterlimit="10" stroke-width="5.67"><path d="M334.98 91.43c1.05 2.67 1.57 5.27 1.57 7.55v.55h5.18v-.82c0-2.53-.52-5.39-1.59-8.35-1.72.36-3.46.7-5.16 1.07Z" fill="#7ed957" stroke="#7ac943"/><path d="M292.57 64.38c-34.59 0-52.98 19.75-52.98 46.58 0 23.29 14.16 46.3 53.79 46.3 34.05 0 49.16-18.66 49.16-34.32v-.68h-5.18v.68c0 13.75-13.76 29.41-43.99 29.41-35.27 0-48.35-20.43-48.35-41.4 0-24.65 16.61-41.67 47.8-41.67 23.59 0 36.12 10.06 41.09 19.82 1.79-.33 3.59-.58 5.4-.76-5.17-11.61-19.22-23.97-46.76-23.97Z" fill="#7ed957" stroke="#7ac943"/><path d="M340.14 90.35c-.24-.66-.52-1.33-.82-2-1.81.18-3.61.43-5.4.76.4.78.76 1.55 1.06 2.32 1.7-.38 3.44-.71 5.16-1.07ZM358.06 122.13c0-17.98 12.53-35.14 44.26-35.14s44.26 17.16 44.26 35.14-12.12 34.86-44.26 34.86-44.26-16.75-44.26-34.86Zm83.35 0c0-15.66-10.76-30.37-39.09-30.37s-39.09 14.71-39.09 30.37 10.62 30.1 39.09 30.1 39.09-14.43 39.09-30.1ZM462.78 126.35V88.36h5.18v37.32c0 15.39 9.53 26.56 34.73 26.56 22.75 0 43.44-13.07 43.44-35V88.37h5.18v67.28h-5.18c.14-4.63.27-14.57.27-24.38h-.27c-5.31 16.75-23.15 25.74-43.99 25.74-27.92 0-39.36-13.48-39.36-30.64ZM570.5 88.35h5.17v20.56h.27c5.86-14.98 21.79-21.93 42.49-21.93 30.91 0 40.58 13.89 40.58 30.51v38.13h-5.18v-37.18c0-14.98-8.31-26.69-36.22-26.69-22.34 0-41.95 9.67-41.95 31.46v32.41h-5.17V88.35ZM685.15 129.89V93.12h-15.39v-4.77h13.07c1.77 0 2.45-.82 2.59-3.81l.27-11.44h4.63v15.25h45.9v4.77h-45.9v36.5c0 12.67 7.22 21.38 29.15 21.38 6.67 0 13.75-1.09 16.61-1.91v4.77c-2.45.68-9.94 1.91-16.75 1.91-25.33 0-34.18-11.03-34.18-25.88ZM754.06 88.35h5.17v23.7h.27c4.63-14.3 17.98-25.06 36.5-25.06 24.51 0 32.82 13.48 32.82 31.19 0 4.36-.27 8.58-.41 10.62h-5.04c.27-1.91.41-5.99.41-9.67 0-15.8-6.81-27.37-28.33-27.37s-36.23 15.53-36.23 35.82v28.05h-5.17V88.35ZM844.89 183.41v-4.9c1.91.82 5.86 2.04 10.35 2.04 10.9 0 15.53-6.13 26.56-24.92h-1.91l-43.44-67.28h6.26l40.86 63.46h.27l36.77-63.46h5.86l-39.63 68.23c-11.98 20.84-17.57 28.74-31.59 28.74-4.49 0-8.58-1.09-10.35-1.91ZM935.44 133.29h5.04c0 8.04 4.77 19.07 33.37 19.07s35.68-8.58 35.68-16.2c0-3.68-1.63-7.49-6.26-9.26-5.59-2.04-17.84-2.32-29.01-2.59-15.12-.41-26.15-1.5-31.46-3.95-4.9-2.18-7.35-6.81-7.35-12.26 0-12.53 14.84-21.11 38.27-21.11 31.19 0 37.45 12.26 37.45 24.11h-5.04c-.14-9.94-5.31-19.47-32.28-19.47-20.57 0-33.23 6.26-33.23 16.34 0 3.81 2.04 7.36 5.72 8.85 5.04 1.91 16.21 2.45 29.69 3 12.53.27 23.83.68 30.1 3.27 6.26 2.72 8.58 7.9 8.58 12.94 0 9.4-8.17 20.98-40.86 20.98s-38.4-13.89-38.4-23.7ZM1033.08 64.11h5.99v12.67h-5.99V64.11Zm.41 24.24h5.18v67.28h-5.18V88.35ZM1057.59 121.17c0-19.2 15.53-34.18 43.72-34.18 22.06 0 36.63 7.76 40.86 19.88h.14V60.3h5.18v95.33h-5.18c.14-7.49.14-15.25.27-22.61h-.27c-4.49 12.12-18.25 23.97-41.54 23.97-26.56 0-43.17-14.03-43.17-35.82Zm84.71 1.5v-2.86c0-15.8-14.16-28.05-40.99-28.05-25.06 0-38.54 12.8-38.54 29.41 0 18.8 14.57 31.05 37.99 31.05 27.65 0 41.13-17.98 41.54-29.55ZM1249.2 122.67h-78.03c0 14.71 7.63 29.69 37.86 29.69 24.24 0 33.78-8.58 35.14-18.25h5.04c-1.22 11.85-12.53 22.88-40.18 22.88-34.32 0-43.03-17.98-43.03-34.46 0-22.74 15.93-35.55 42.9-35.55s40.31 12.26 40.31 32.14v3.54Zm-5.04-4.63c0-16.21-10.62-26.42-35.27-26.42-22.47 0-35.82 9.26-37.59 26.83h72.86v-.41Z" fill="#7ed957" stroke="#7ac943"/><path d="M1268.66 66.01h8.99l48.07 83.21h.27l47.94-83.21h8.99v89.61h-5.45V70.24h-.14l-49.44 85.39h-4.36l-49.43-85.39h-.27v85.39h-5.18V66.01ZM1485.6 122.67h-78.03c0 14.71 7.63 29.69 37.86 29.69 24.24 0 33.78-8.58 35.14-18.25h5.04c-1.22 11.85-12.53 22.88-40.18 22.88-34.32 0-43.03-17.98-43.03-34.46 0-22.74 15.93-35.55 42.9-35.55s40.31 12.26 40.31 32.14v3.54Zm-5.04-4.63c0-16.21-10.62-26.42-35.27-26.42-22.47 0-35.82 9.26-37.59 26.83h72.86v-.41ZM1501.11 121.17c0-19.2 15.53-34.18 43.72-34.18 22.06 0 36.63 7.76 40.86 19.88h.14V60.3h5.18v95.33h-5.18c.14-7.49.14-15.25.27-22.61h-.27c-4.49 12.12-18.25 23.97-41.54 23.97-26.56 0-43.17-14.03-43.17-35.82Zm84.71 1.5v-2.86c0-15.8-14.16-28.05-40.99-28.05-25.06 0-38.54 12.8-38.54 29.41 0 18.8 14.57 31.05 37.99 31.05 27.65 0 41.13-17.98 41.54-29.55ZM1612.37 64.11h5.99v12.67h-5.99V64.11Zm.41 24.24h5.18v67.28h-5.18V88.35ZM1637.56 136.7c0-10.76 9.12-17.16 27.37-17.16h48.89v-2.45c0-14.98-10.76-25.47-35.55-25.47-22.2 0-33.37 7.22-33.37 18.39 0 .27 0 1.09.14 2.04H1640c-.14-1.09-.14-1.91-.14-2.18 0-14.03 13.21-22.88 38.4-22.88 27.92 0 40.72 12.94 40.72 30.51v38.13h-5.18c.14-6.67.14-14.3.14-21.11h-.14c-3.95 12.66-18.39 22.33-42.63 22.33s-33.64-9.67-33.64-20.16Zm76.26-12.66v-.27h-48.35c-16.34 0-22.88 4.9-22.88 12.94s6.13 15.53 28.87 15.53c28.87 0 42.35-14.98 42.35-28.19Z" fill="#007cc7" stroke="#007cc7"/></g></svg>