<svg xmlns="http://www.w3.org/2000/svg" viewBox="0 0 1689.84 155.26"><path d="M117.71 52.73s-.03.05-.04.07c-.06.08-.13.2-.23.26 0 0 .01 0 .02.01-10.71 19.85-21.43 39.76-32.15 59.65L53.26 54.86s.04-.03.06-.05c-.01 0-.05 0-.05-.01-.01-.11 0-.2.01-.3a50.073 50.073 0 0 0-6.39 6.79c.41.3.58.37.64.49 10.53 19.21 21.05 38.41 31.52 57.65.25.46.19 1.4-.12 1.83-4.13 5.54-8.33 11.02-12.73 16.8 0 0-.02 0-.02-.01a.21.21 0 0 1-.04.06c2.71 1.21 5.54 2.19 8.48 2.91.1-.17.23-.32.36-.48h-.02c2.83-4.09 5.81-8.17 9.05-12.35.49-.64 1.46-.62 1.94.02 3.3 4.48 6.6 8.91 9.68 13.09 0 0-.02.01-.03.02h.01c.04.02.07.06.09.1.03.05.07.09.11.14.02 0 .05.01.07.03 2.85-.54 5.62-1.31 8.28-2.3-4.57-6.09-8.99-11.94-13.32-17.85-.34-.46-.34-1.49-.06-2.02 10.58-19.45 21.21-38.87 31.84-58.29.33-.61.7-1.19 1.32-2.23l.01.01v-.01c0-.02.01-.05.03-.07.02-.04.05-.08.07-.12a51.229 51.229 0 0 0-6.35-5.97Z" fill="#007cc7"/><path d="M128.59 118.14c-6.14 9.85-14.45 16.97-24.83 20.84-.03-.04-.06-.08-.09-.11a48.59 48.59 0 0 1-17.04 3.07 48.57 48.57 0 0 1-21.59-5.04c-.8-.35-1.61-.72-2.4-1.13-6.44-3.64-11.76-8.29-15.83-13.97-.66-1.01-1.26-1.92-1.81-2.72-2.98-4.87-5.13-10.41-6.34-16.66-2.41-12.31-.21-23.69 6.08-34.05.11-.18.21-.37.33-.55.05-.08.1-.16.16-.24.86-1.38 1.79-2.72 2.78-4.01.07-.09.12-.17.19-.26 8.91-11.44 22.81-18.8 38.43-18.8 17.98 0 33.68 9.75 42.12 24.25 2.11-1.24 4.27-2.5 6.58-3.85-.29-.61-.49-1.15-.79-1.63-11.98-19.23-34.93-29.49-57.58-25.73-22.25 3.68-40.59 20.9-45.7 42.88-4.33 18.65.79 37.31 12.79 50.74.14.15.28.31.42.46.05.05.11.12.17.18 2.06 2.17 9.28 9.28 20.25 14.04 0 0 18.78 10.56 43.37-.23 4.33-1.87 8.8-4.35 13.4-7.58 0 0 .01 0 .02-.01 5.11-4 9.49-8.89 13.1-14.71.19-.31.36-.64.65-1.17-2.36-1.38-4.5-2.64-6.83-4.01Z" fill="#7ed957"/><path d="M8.16 152.42c6.55-42.3 13.07-84.41 19.59-126.5l.63-.11c4.2 7.79 8.39 15.59 12.71 23.61 1.96-1.74 3.78-3.29 5.5-4.94.29-.28.33-1.15.12-1.55C39.17 28.81 31.6 14.72 23.5.63 15.68 51.15 7.85 101.68 0 152.42h8.16ZM125.26 43.74c1.56 1.03 2.92 2.37 4.63 3.8 3.95-7.33 7.84-14.53 11.72-21.72h.62c6.52 42.1 13.04 84.21 19.61 126.6H170C162.15 101.73 154.32 51.16 146.4 0c-.67 1.14-1.03 1.72-1.36 2.33-6.82 12.71-13.61 25.44-20.49 38.11-.84 1.52-.75 2.34.7 3.3Z" fill="#007cc7"/><g stroke-linecap="round" stroke-miterlimit="10" stroke-width="5.67"><path d="M302.98 58.53c1.05 2.67 1.57 5.27 1.57 7.55v.55h5.18v-.82c0-2.53-.52-5.39-1.59-8.35-1.72.36-3.46.7-5.16 1.07Z" fill="#7ed957" stroke="#7ac943"/><path d="M260.57 31.48c-34.59 0-52.98 19.75-52.98 46.58 0 23.29 14.16 46.3 53.79 46.3 34.05 0 49.16-18.66 49.16-34.32v-.68h-5.18v.68c0 13.75-13.76 29.41-43.99 29.41-35.27 0-48.35-20.43-48.35-41.4 0-24.65 16.61-41.67 47.8-41.67 23.59 0 36.12 10.06 41.09 19.82 1.79-.33 3.59-.58 5.4-.76-5.17-11.61-19.22-23.97-46.76-23.97Z" fill="#7ed957" stroke="#7ac943"/><path d="M308.14 57.46c-.24-.66-.52-1.33-.82-2-1.81.18-3.61.43-5.4.76.4.78.76 1.55 1.06 2.32 1.7-.38 3.44-.71 5.16-1.07ZM326.06 89.23c0-17.98 12.53-35.14 44.26-35.14s44.26 17.16 44.26 35.14-12.12 34.86-44.26 34.86-44.26-16.75-44.26-34.86Zm83.35 0c0-15.66-10.76-30.37-39.09-30.37s-39.09 14.71-39.09 30.37 10.62 30.1 39.09 30.1 39.09-14.43 39.09-30.1ZM430.78 93.45v-38h5.18v37.32c0 15.39 9.53 26.56 34.73 26.56 22.75 0 43.44-13.07 43.44-35V55.46h5.18v67.27h-5.18c.14-4.63.27-14.57.27-24.38h-.27c-5.31 16.75-23.15 25.74-43.99 25.74-27.92 0-39.36-13.48-39.36-30.64ZM538.5 55.45h5.17v20.56h.27c5.86-14.98 21.79-21.93 42.49-21.93 30.91 0 40.58 13.89 40.58 30.51v38.13h-5.18V85.54c0-14.98-8.31-26.69-36.22-26.69-22.34 0-41.95 9.67-41.95 31.46v32.41h-5.17V55.45ZM653.15 96.99V60.22h-15.39v-4.77h13.07c1.77 0 2.45-.82 2.59-3.81l.27-11.44h4.63v15.25h45.9v4.77h-45.9v36.5c0 12.67 7.22 21.38 29.15 21.38 6.67 0 13.75-1.09 16.61-1.91v4.77c-2.45.68-9.94 1.91-16.75 1.91-25.33 0-34.18-11.03-34.18-25.88ZM722.06 55.45h5.17v23.7h.27c4.63-14.3 17.98-25.06 36.5-25.06 24.51 0 32.82 13.48 32.82 31.19 0 4.36-.27 8.58-.41 10.62h-5.04c.27-1.91.41-5.99.41-9.67 0-15.8-6.81-27.37-28.33-27.37s-36.23 15.53-36.23 35.82v28.05h-5.17V55.45ZM812.89 150.51v-4.9c1.91.82 5.86 2.04 10.35 2.04 10.9 0 15.53-6.13 26.56-24.92h-1.91l-43.44-67.28h6.26l40.86 63.46h.27l36.77-63.46h5.86l-39.63 68.23c-11.98 20.84-17.57 28.74-31.59 28.74-4.49 0-8.58-1.09-10.35-1.91ZM903.44 100.39h5.04c0 8.04 4.77 19.07 33.37 19.07s35.68-8.58 35.68-16.2c0-3.68-1.63-7.49-6.26-9.26-5.59-2.04-17.84-2.32-29.01-2.59-15.12-.41-26.15-1.5-31.46-3.95-4.9-2.18-7.35-6.81-7.35-12.26 0-12.53 14.84-21.11 38.27-21.11 31.19 0 37.45 12.26 37.45 24.11h-5.04c-.14-9.94-5.31-19.47-32.28-19.47-20.57 0-33.23 6.26-33.23 16.34 0 3.81 2.04 7.36 5.72 8.85 5.04 1.91 16.21 2.45 29.69 3 12.53.27 23.83.68 30.1 3.27 6.26 2.72 8.58 7.9 8.58 12.94 0 9.4-8.17 20.98-40.86 20.98s-38.4-13.89-38.4-23.7ZM1001.08 31.21h5.99v12.67h-5.99V31.21Zm.41 24.24h5.18v67.28h-5.18V55.45ZM1025.59 88.27c0-19.2 15.53-34.18 43.72-34.18 22.06 0 36.63 7.76 40.86 19.88h.14V27.4h5.18v95.33h-5.18c.14-7.49.14-15.25.27-22.61h-.27c-4.49 12.12-18.25 23.97-41.54 23.97-26.56 0-43.17-14.03-43.17-35.82Zm84.71 1.5v-2.86c0-15.8-14.16-28.05-40.99-28.05-25.06 0-38.54 12.8-38.54 29.41 0 18.8 14.57 31.05 37.99 31.05 27.65 0 41.13-17.98 41.54-29.55ZM1217.2 89.77h-78.03c0 14.71 7.63 29.69 37.86 29.69 24.24 0 33.78-8.58 35.14-18.25h5.04c-1.22 11.85-12.53 22.88-40.18 22.88-34.32 0-43.03-17.98-43.03-34.46 0-22.74 15.93-35.55 42.9-35.55s40.31 12.26 40.31 32.14v3.54Zm-5.04-4.63c0-16.21-10.62-26.42-35.27-26.42-22.47 0-35.82 9.26-37.59 26.83h72.86v-.41Z" fill="#7ed957" stroke="#7ac943"/><path d="M1236.66 33.12h8.99l48.07 83.21h.27l47.94-83.21h8.99v89.61h-5.45V37.34h-.14l-49.44 85.39h-4.36l-49.43-85.39h-.27v85.39h-5.18V33.12ZM1453.6 89.77h-78.03c0 14.71 7.63 29.69 37.86 29.69 24.24 0 33.78-8.58 35.14-18.25h5.04c-1.22 11.85-12.53 22.88-40.18 22.88-34.32 0-43.03-17.98-43.03-34.46 0-22.74 15.93-35.55 42.9-35.55s40.31 12.26 40.31 32.14v3.54Zm-5.04-4.63c0-16.21-10.62-26.42-35.27-26.42-22.47 0-35.82 9.26-37.59 26.83h72.86v-.41ZM1469.11 88.27c0-19.2 15.53-34.18 43.72-34.18 22.06 0 36.63 7.76 40.86 19.88h.14V27.4h5.18v95.33h-5.18c.14-7.49.14-15.25.27-22.61h-.27c-4.49 12.12-18.25 23.97-41.54 23.97-26.56 0-43.17-14.03-43.17-35.82Zm84.71 1.5v-2.86c0-15.8-14.16-28.05-40.99-28.05-25.06 0-38.54 12.8-38.54 29.41 0 18.8 14.57 31.05 37.99 31.05 27.65 0 41.13-17.98 41.54-29.55ZM1580.37 31.21h5.99v12.67h-5.99V31.21Zm.41 24.24h5.18v67.28h-5.18V55.45ZM1605.56 103.8c0-10.76 9.12-17.16 27.37-17.16h48.89v-2.45c0-14.98-10.76-25.47-35.55-25.47-22.2 0-33.37 7.22-33.37 18.39 0 .27 0 1.09.14 2.04H1608c-.14-1.09-.14-1.91-.14-2.18 0-14.03 13.21-22.88 38.4-22.88 27.92 0 40.72 12.94 40.72 30.51v38.13h-5.18c.14-6.67.14-14.3.14-21.11h-.14c-3.95 12.66-18.39 22.33-42.63 22.33s-33.64-9.67-33.64-20.16Zm76.26-12.66v-.27h-48.35c-16.34 0-22.88 4.9-22.88 12.94s6.13 15.53 28.87 15.53c28.87 0 42.35-14.98 42.35-28.19Z" fill="#007cc7" stroke="#007cc7"/></g></svg>