<?xml version="1.0" encoding="UTF-8"?><svg id="a" xmlns="http://www.w3.org/2000/svg" viewBox="0 0 676 94"><defs><style>.b{stroke:#007cc7;}.b,.c{stroke-linecap:round;stroke-miterlimit:10;stroke-width:2.18px;}.b,.d{fill:#007cc7;}.e,.c{fill:#7ed957;}.c{stroke:#7ac943;}</style></defs><g><path class="c" d="M140.05,55.88c.4,1.03,.6,2.03,.6,2.9v.21h1.99v-.31c0-.97-.2-2.07-.61-3.21-.66,.14-1.33,.27-1.98,.41Z"/><path class="c" d="M123.73,45.47c-13.31,0-20.38,7.6-20.38,17.92,0,8.96,5.45,17.81,20.7,17.81,13.1,0,18.91-7.18,18.91-13.2v-.26h-1.99v.26c0,5.29-5.29,11.32-16.92,11.32-13.57,0-18.6-7.86-18.6-15.93,0-9.48,6.39-16.03,18.39-16.03,9.08,0,13.89,3.87,15.81,7.63,.69-.13,1.38-.22,2.08-.29-1.99-4.47-7.39-9.22-17.99-9.22Z"/><path class="c" d="M142.04,55.47c-.09-.26-.2-.51-.32-.77-.7,.07-1.39,.17-2.08,.29,.15,.3,.29,.6,.41,.89,.65-.15,1.32-.27,1.98-.41Z"/><path class="c" d="M148.93,67.69c0-6.92,4.82-13.52,17.03-13.52s17.03,6.6,17.03,13.52-4.66,13.41-17.03,13.41-17.03-6.45-17.03-13.41Zm32.06,0c0-6.03-4.14-11.68-15.04-11.68s-15.04,5.66-15.04,11.68,4.09,11.58,15.04,11.58,15.04-5.55,15.04-11.58Z"/><path class="c" d="M189.22,69.31v-14.62h1.99v14.36c0,5.92,3.67,10.22,13.36,10.22,8.75,0,16.71-5.03,16.71-13.46v-11.11h1.99v25.88h-1.99c.05-1.78,.11-5.61,.11-9.38h-.11c-2.04,6.44-8.91,9.9-16.92,9.9-10.74,0-15.14-5.19-15.14-11.79Z"/><path class="c" d="M230.66,54.7h1.99v7.91h.11c2.25-5.76,8.38-8.44,16.35-8.44,11.89,0,15.61,5.34,15.61,11.74v14.67h-1.99v-14.3c0-5.76-3.2-10.27-13.94-10.27-8.59,0-16.14,3.72-16.14,12.1v12.47h-1.99v-25.88Z"/><path class="c" d="M274.77,70.68v-14.15h-5.92v-1.83h5.03c.68,0,.94-.31,1-1.47l.1-4.4h1.78v5.87h17.66v1.83h-17.66v14.04c0,4.87,2.78,8.23,11.21,8.23,2.57,0,5.29-.42,6.39-.73v1.83c-.94,.26-3.83,.73-6.45,.73-9.75,0-13.15-4.24-13.15-9.95Z"/><path class="c" d="M301.27,54.7h1.99v9.12h.11c1.78-5.5,6.92-9.64,14.04-9.64,9.43,0,12.63,5.19,12.63,12,0,1.68-.1,3.3-.16,4.09h-1.94c.1-.73,.16-2.31,.16-3.72,0-6.08-2.62-10.53-10.9-10.53s-13.94,5.97-13.94,13.78v10.79h-1.99v-25.88Z"/><path class="c" d="M336.22,91.27v-1.89c.73,.31,2.25,.79,3.98,.79,4.19,0,5.97-2.36,10.22-9.59h-.73l-16.71-25.88h2.41l15.72,24.42h.1l14.15-24.42h2.25l-15.25,26.25c-4.61,8.02-6.76,11.05-12.15,11.05-1.73,0-3.3-.42-3.98-.73Z"/><path class="c" d="M371.06,71.99h1.94c0,3.09,1.83,7.34,12.84,7.34s13.73-3.3,13.73-6.23c0-1.42-.63-2.88-2.41-3.56-2.15-.79-6.86-.89-11.16-1-5.82-.16-10.06-.58-12.1-1.52-1.89-.84-2.83-2.62-2.83-4.72,0-4.82,5.71-8.12,14.72-8.12,12,0,14.41,4.72,14.41,9.27h-1.94c-.05-3.83-2.04-7.49-12.42-7.49-7.91,0-12.78,2.41-12.78,6.29,0,1.47,.79,2.83,2.2,3.41,1.94,.73,6.24,.94,11.42,1.15,4.82,.1,9.17,.26,11.58,1.26,2.41,1.05,3.3,3.04,3.3,4.98,0,3.62-3.14,8.07-15.72,8.07s-14.77-5.34-14.77-9.12Z"/><path class="c" d="M408.62,45.37h2.31v4.87h-2.31v-4.87Zm.16,9.33h1.99v25.88h-1.99v-25.88Z"/><path class="c" d="M418.05,67.32c0-7.39,5.97-13.15,16.82-13.15,8.49,0,14.09,2.99,15.72,7.65h.05v-17.92h1.99v36.67h-1.99c.05-2.88,.05-5.87,.1-8.7h-.1c-1.73,4.66-7.02,9.22-15.98,9.22-10.22,0-16.61-5.4-16.61-13.78Zm32.59,.58v-1.1c0-6.08-5.45-10.79-15.77-10.79-9.64,0-14.83,4.92-14.83,11.32,0,7.23,5.61,11.95,14.62,11.95,10.64,0,15.82-6.92,15.98-11.37Z"/><path class="c" d="M491.76,67.9h-30.02c0,5.66,2.93,11.42,14.56,11.42,9.33,0,12.99-3.3,13.52-7.02h1.94c-.47,4.56-4.82,8.8-15.46,8.8-13.2,0-16.56-6.92-16.56-13.26,0-8.75,6.13-13.67,16.5-13.67s15.51,4.72,15.51,12.36v1.36Zm-1.94-1.78c0-6.24-4.09-10.16-13.57-10.16-8.65,0-13.78,3.56-14.46,10.32h28.03v-.16Z"/><path class="b" d="M499.25,46.1h3.46l18.49,32.01h.1l18.44-32.01h3.46v34.47h-2.1V47.73h-.05l-19.02,32.85h-1.68l-19.02-32.85h-.11v32.85h-1.99V46.1Z"/><path class="b" d="M582.7,67.9h-30.02c0,5.66,2.93,11.42,14.56,11.42,9.33,0,12.99-3.3,13.52-7.02h1.94c-.47,4.56-4.82,8.8-15.46,8.8-13.2,0-16.56-6.92-16.56-13.26,0-8.75,6.13-13.67,16.5-13.67s15.51,4.72,15.51,12.36v1.36Zm-1.94-1.78c0-6.24-4.09-10.16-13.57-10.16-8.65,0-13.78,3.56-14.46,10.32h28.03v-.16Z"/><path class="b" d="M588.67,67.32c0-7.39,5.97-13.15,16.82-13.15,8.49,0,14.09,2.99,15.72,7.65h.05v-17.92h1.99v36.67h-1.99c.05-2.88,.05-5.87,.1-8.7h-.1c-1.73,4.66-7.02,9.22-15.98,9.22-10.22,0-16.61-5.4-16.61-13.78Zm32.59,.58v-1.1c0-6.08-5.45-10.79-15.77-10.79-9.64,0-14.83,4.92-14.83,11.32,0,7.23,5.61,11.95,14.62,11.95,10.64,0,15.82-6.92,15.98-11.37Z"/><path class="b" d="M631.47,45.37h2.31v4.87h-2.31v-4.87Zm.16,9.33h1.99v25.88h-1.99v-25.88Z"/><path class="b" d="M641.17,73.3c0-4.14,3.51-6.6,10.53-6.6h18.81v-.94c0-5.76-4.14-9.8-13.67-9.8-8.54,0-12.84,2.78-12.84,7.07,0,.1,0,.42,.05,.79h-1.94c-.05-.42-.05-.73-.05-.84,0-5.4,5.08-8.8,14.77-8.8,10.74,0,15.67,4.98,15.67,11.74v14.67h-1.99c.05-2.57,.05-5.5,.05-8.12h-.05c-1.52,4.87-7.07,8.59-16.4,8.59s-12.94-3.72-12.94-7.75Zm29.34-4.87v-.11h-18.6c-6.29,0-8.8,1.89-8.8,4.98s2.36,5.97,11.11,5.97c11.11,0,16.29-5.76,16.29-10.84Z"/></g><g><g><g><polygon class="d" points="49.95 68.63 75.11 25.34 62.07 19.86 49.9 18.31 39.7 19.86 24.8 25.34 49.95 68.63"/><polygon class="d" points="49.95 63.03 36.44 86.27 43.45 89.22 49.98 90.05 55.46 89.22 63.46 86.27 49.95 63.03"/></g><path class="e" d="M78.85,69.73c-4.23,6.78-9.95,11.68-17.1,14.35-.02-.03-.04-.05-.06-.08-3.65,1.36-7.6,2.11-11.73,2.11-5.34,0-10.38-1.25-14.86-3.47-.55-.24-1.11-.5-1.66-.77-4.43-2.51-8.1-5.71-10.9-9.62-.45-.7-.87-1.32-1.25-1.88-2.05-3.35-3.53-7.17-4.37-11.47-1.66-8.48-.15-16.31,4.19-23.44,.07-.13,.15-.25,.22-.38,.04-.06,.07-.11,.11-.17,.59-.95,1.23-1.87,1.91-2.76,.04-.06,.09-.12,.13-.18,0,0,0,0,0,0,6.14-7.87,15.7-12.94,26.46-12.94,12.38,0,23.19,6.71,29,16.69,1.45-.85,2.94-1.72,4.53-2.65-.2-.42-.34-.79-.54-1.12-8.25-13.24-24.05-20.3-39.64-17.72-15.32,2.53-27.95,14.39-31.46,29.53-2.98,12.84,.54,25.69,8.8,34.94,.1,.1,.19,.21,.29,.32,.03,.04,.07,.08,.11,.12,1.42,1.49,6.39,6.39,13.94,9.67,0,0,12.93,7.27,29.86-.16h0c2.98-1.29,6.06-2.99,9.23-5.22,0,0,0,0,.01,0,3.52-2.76,6.54-6.12,9.02-10.13,.13-.21,.25-.44,.45-.8-1.62-.95-3.1-1.82-4.7-2.76Z"/></g><circle class="d" cx="11.29" cy="11.78" r="9.78"/></g></svg>