<svg id="a" xmlns="http://www.w3.org/2000/svg" viewBox="0 0 500 459"><defs><style>.c{fill:#007cc7}</style></defs><path class="c" d="M343.71 162.24c-.05.07-.1.15-.13.19-.16.24-.38.57-.65.73.01.01.03.02.04.04-30.67 56.88-61.38 113.89-92.09 170.89l-91.81-165.73c.06-.05.12-.1.17-.15-.04-.01-.14-.02-.14-.04-.04-.33.02-.57.04-.85-6.68 5.91-12.82 12.4-18.31 19.44 1.18.85 1.66 1.05 1.84 1.4 30.16 55.03 60.32 110.03 90.3 165.14.73 1.32.55 4.02-.34 5.24-11.83 15.86-23.86 31.58-36.46 48.13-.02 0-.05-.02-.07-.03-.03.06-.06.12-.1.17 7.76 3.46 15.87 6.28 24.28 8.34.29-.49.67-.92 1.03-1.37h.01c-.02 0-.04 0-.06-.01 8.1-11.72 16.65-23.41 25.91-35.38 1.41-1.82 4.18-1.79 5.55.07 9.47 12.84 18.9 25.51 27.72 37.49-.01.02-.06.04-.09.06h.04c.11.07.19.18.25.29.09.15.21.27.32.4.07.03.14.04.2.07 8.17-1.53 16.1-3.74 23.72-6.59-13.1-17.45-25.75-34.21-38.15-51.12-.96-1.32-.98-4.28-.18-5.78 30.32-55.71 60.77-111.35 91.22-166.99.95-1.73 2.01-3.41 3.78-6.38 0 .01.02.03.03.04 0 0 0-.01.01-.02 0-.01 0-.03.01-.04h.01v-.01c.02-.07.03-.14.07-.2.07-.11.14-.23.2-.35-5.55-6.22-11.66-11.92-18.2-17.1z"/><path d="M374.88 349.62c-17.58 28.22-41.4 48.61-71.13 59.7-.08-.11-.16-.22-.25-.33-15.2 5.68-31.64 8.8-48.82 8.8-22.21 0-43.2-5.21-61.84-14.45-2.3-1-4.6-2.06-6.89-3.22-18.44-10.44-33.7-23.76-45.34-40.02-1.89-2.9-3.62-5.49-5.19-7.8-8.54-13.95-14.68-29.83-18.17-47.71-6.9-35.27-.62-67.86 17.43-97.54.31-.52.61-1.05.93-1.57.15-.23.3-.47.45-.7 2.46-3.97 5.12-7.8 7.96-11.48.19-.25.36-.5.54-.75.01 0 .02.01.03.02 25.54-32.76 65.34-53.86 110.09-53.86 51.51 0 96.47 27.93 120.65 69.46 6.04-3.54 12.22-7.16 18.84-11.02-.82-1.73-1.39-3.3-2.25-4.67-34.32-55.1-100.07-84.47-164.95-73.72-63.73 10.53-116.28 59.86-130.91 122.85-12.39 53.41 2.25 106.89 36.63 145.37.4.44.8.88 1.2 1.31.13.15.3.35.48.52 5.89 6.22 26.58 26.58 58.01 40.23 0 0 53.79 30.25 124.24-.67h-.02c12.39-5.36 25.21-12.46 38.38-21.72.02-.02.04-.02.06-.04 14.64-11.47 27.19-25.48 37.53-42.14.55-.88 1.03-1.84 1.87-3.34-6.75-3.97-12.89-7.57-19.56-11.49z" style="fill:#7ed957"/><path class="c" d="M29.86 447.82c18.76-121.17 37.45-241.8 56.12-362.37.92-.16.9-.15 1.81-.31 12.02 22.32 24.03 44.66 36.4 67.64 5.63-4.98 10.83-9.43 15.75-14.16.82-.8.95-3.3.34-4.44-21.56-40.47-43.26-80.84-66.45-121.2C51.43 157.72 29 302.47 6.5 447.82h23.36zM365.34 136.49c4.46 2.96 8.36 6.78 13.27 10.88 11.33-21.01 22.45-41.62 33.56-62.23.59 0 1.18 0 1.77.02 18.69 120.61 37.36 241.24 56.18 362.66h23.38c-22.48-145.22-44.91-290.09-67.6-436.63-1.91 3.26-2.95 4.94-3.89 6.68-19.54 36.41-38.99 72.87-58.69 109.18-2.4 4.35-2.14 6.7 2.02 9.45z"/></svg>