<svg id="b" xmlns="http://www.w3.org/2000/svg" viewBox="0 0 400 438.75"><defs><style>.e{fill:#007cc7}</style></defs><g id="c"><path class="e" d="m236.21 324.8 122.64-211-63.59-26.72-59.3-7.57-49.72 7.57-72.68 26.72 122.65 211z"/><path class="e" d="m236.21 297.53-65.87 113.31 34.15 14.35 31.85 4.07 26.7-4.07 39.03-14.35-65.86-113.31z"/><path d="M377.08 330.21c-20.6 33.07-48.51 56.95-83.34 69.95l-.29-.38c-17.81 6.65-37.07 10.31-57.2 10.31-26.03 0-50.61-6.11-72.46-16.93-2.7-1.18-5.39-2.42-8.07-3.78-21.61-12.23-39.48-27.84-53.13-46.89-2.21-3.39-4.24-6.44-6.08-9.14C86.5 317 79.31 298.4 75.22 277.44c-8.09-41.33-.72-79.52 20.42-114.29.37-.61.72-1.23 1.09-1.84.17-.27.35-.55.52-.82 2.89-4.65 6-9.13 9.32-13.46.22-.29.42-.58.64-.87.01 0 .02.01.03.02 29.92-38.39 76.56-63.1 129-63.1 60.36 0 113.04 32.73 141.36 81.38 7.07-4.15 14.32-8.39 22.08-12.91-.96-2.03-1.63-3.87-2.64-5.47-40.22-64.56-117.25-98.97-193.27-86.38C129.1 72.04 67.52 129.84 50.39 203.64c-14.52 62.59 2.64 125.24 42.92 170.32.47.51.94 1.03 1.41 1.54.15.18.36.4.56.61 6.9 7.29 31.14 31.15 67.97 47.14 0 0 63.03 35.45 145.57-.78h-.02c14.52-6.28 29.54-14.6 44.97-25.45.02-.02.05-.02.07-.04 17.16-13.44 31.86-29.85 43.97-49.37.65-1.03 1.21-2.15 2.19-3.92-7.91-4.65-15.1-8.87-22.92-13.46z" style="fill:#7ed957"/><circle class="e" cx="47.7" cy="47.7" r="47.7"/></g></svg>