<?xml version="1.0" encoding="UTF-8"?><svg id="b" xmlns="http://www.w3.org/2000/svg" viewBox="0 0 400 438.75"><defs><style>.d{fill:#22c55e;}.e{fill:#007cc7;}</style></defs><g id="c"><g><g><polygon class="e" points="236.21 297.38 358.85 109.97 295.26 86.24 235.96 79.51 186.24 86.24 113.56 109.97 236.21 297.38"/><polygon class="e" points="236.21 297.53 170.34 410.84 204.49 425.19 236.34 429.26 263.04 425.19 302.07 410.84 236.21 297.53"/></g><path class="d" d="M377.08,330.21c-20.6,33.07-48.51,56.95-83.34,69.95-.1-.13-.19-.25-.29-.38-17.81,6.65-37.07,10.31-57.2,10.31-26.03,0-50.61-6.11-72.46-16.93-2.7-1.18-5.39-2.42-8.07-3.78-21.61-12.23-39.48-27.84-53.13-46.89-2.21-3.39-4.24-6.44-6.08-9.14-10.01-16.35-17.2-34.95-21.29-55.91-8.09-41.33-.72-79.52,20.42-114.29,.37-.61,.72-1.23,1.09-1.84,.17-.27,.35-.55,.52-.82,2.89-4.65,6-9.13,9.32-13.46,.22-.29,.42-.58,.64-.87,.01,0,.02,.01,.03,.02,29.92-38.39,76.56-63.1,129-63.1,60.36,0,113.04,32.73,141.36,81.38,7.07-4.15,14.32-8.39,22.08-12.91-.96-2.03-1.63-3.87-2.64-5.47-40.22-64.56-117.25-98.97-193.27-86.38-74.67,12.34-136.25,70.14-153.38,143.94-14.52,62.59,2.64,125.24,42.92,170.32,.47,.51,.94,1.03,1.41,1.54,.15,.18,.36,.4,.56,.61,6.9,7.29,31.14,31.15,67.97,47.14,0,0,63.03,35.45,145.57-.78h-.02c14.52-6.28,29.54-14.6,44.97-25.45,.02-.02,.05-.02,.07-.04,17.16-13.44,31.86-29.85,43.97-49.37,.65-1.03,1.21-2.15,2.19-3.92-7.91-4.65-15.1-8.87-22.92-13.46Z"/><circle class="e" cx="47.7" cy="47.7" r="47.7"/></g></g></svg>